<?xml version="1.0" encoding="utf-8"?>
<!-- Generator: Adobe Illustrator 24.3.0, SVG Export Plug-In . SVG Version: 6.00 Build 0)  -->
<svg version="1.1" id="Layer_1" xmlns="http://www.w3.org/2000/svg" xmlns:xlink="http://www.w3.org/1999/xlink" x="0px" y="0px"
	 viewBox="0 0 32 32.04" style="enable-background:new 0 0 32 32.04;" xml:space="preserve">
<style type="text/css">
	.st0{fill:#FFFFFF;}
	.st1{clip-path:url(#SVGID_2_);fill:url(#SVGID_3_);}
</style>
<circle class="st0" cx="16.03" cy="16" r="15.95"/>
<g>
	<defs>
		<path id="SVGID_1_" d="M9.03,21.34l4.76-1.75l9.43,2.23L9.03,16.6c-0.63-0.23-1.15-1.06-1.15-1.85v-3.71
			c0-0.71,0.46-1.59,1.15-1.85l14.2-5.22c0.63-0.23,1.15,0.22,1.15,1v3.71c0,0.78-0.52,1.61-1.15,1.85l-4.76,1.75l-9.44-2.23
			l14.2,5.22c0.63,0.23,1.15,1.06,1.15,1.85v3.71c0,0.28-0.18,1.49-1.15,1.85l-14.2,5.22c-0.63,0.23-1.15-0.22-1.15-1v-3.71
			C7.88,22.4,8.4,21.57,9.03,21.34"/>
	</defs>
	<clipPath id="SVGID_2_">
		<use xlink:href="#SVGID_1_"  style="overflow:visible;"/>
	</clipPath>
	<linearGradient id="SVGID_3_" gradientUnits="userSpaceOnUse" x1="7.8802" y1="15.9331" x2="24.3848" y2="15.9331">
		<stop  offset="0" style="stop-color:#E8C039"/>
		<stop  offset="0.14" style="stop-color:#D9A028"/>
		<stop  offset="0.43" style="stop-color:#EBDE65"/>
		<stop  offset="0.59" style="stop-color:#FDF49B"/>
		<stop  offset="0.73" style="stop-color:#EBDE65"/>
		<stop  offset="1" style="stop-color:#DAA12A"/>
	</linearGradient>
	<rect x="7.88" y="3.74" class="st1" width="16.5" height="24.39"/>
</g>
</svg>
