<svg id="Layer_1" data-name="Layer 1" xmlns="http://www.w3.org/2000/svg" xmlns:xlink="http://www.w3.org/1999/xlink" viewBox="0 0 21.95 32.42"><defs><style>.cls-1{fill:none;clip-rule:evenodd;}.cls-2{clip-path:url(#clip-path);}.cls-3{fill:url(#linear-gradient);}</style><clipPath id="clip-path" transform="translate(-3.43 0.18)"><path class="cls-1" d="M5,23.22l6.33-2.33,12.55,3L5,16.92a2.75,2.75,0,0,1-1.53-2.46V9.53A2.73,2.73,0,0,1,5,7.08L23.84.13c.84-.31,1.53.29,1.53,1.33V6.39a2.75,2.75,0,0,1-1.53,2.46l-6.33,2.32L5,8.2l18.88,7a2.73,2.73,0,0,1,1.53,2.45v4.94A2.76,2.76,0,0,1,23.84,25L5,31.94c-.84.31-1.53-.29-1.53-1.33V25.67A2.74,2.74,0,0,1,5,23.22"/></clipPath><linearGradient id="linear-gradient" y1="16.21" x2="21.95" y2="16.21" gradientUnits="userSpaceOnUse"><stop offset="0" stop-color="#e8c039"/><stop offset="0.14" stop-color="#d9a028"/><stop offset="0.43" stop-color="#ebde65"/><stop offset="0.59" stop-color="#fdf49b"/><stop offset="0.73" stop-color="#ebde65"/><stop offset="1" stop-color="#daa12a"/></linearGradient></defs><g class="cls-2"><rect class="cls-3" width="21.95" height="32.42"/></g></svg>